<svg width="19" height="19" viewBox="0 0 19 19" fill="none" xmlns="http://www.w3.org/2000/svg">
<path d="M9.52635 15.9225C13.123 15.9225 16.0386 13.0068 16.0386 9.4102C16.0386 5.81357 13.123 2.89793 9.52635 2.89793C5.92972 2.89793 3.01408 5.81357 3.01408 9.4102C3.01408 13.0068 5.92972 15.9225 9.52635 15.9225Z" fill="url(#paint0_linear_65_2597)" stroke="url(#paint1_linear_65_2597)" stroke-width="1.5684"/>
<path fill-rule="evenodd" clip-rule="evenodd" d="M9.52688 0C9.24442 0 9.01544 0.228977 9.01544 0.511435V2.14803C9.01544 2.43048 9.24442 2.65946 9.52688 2.65946C9.80933 2.65946 10.0383 2.43048 10.0383 2.14803V0.511435C10.0383 0.228977 9.80933 0 9.52688 0ZM9.52688 16.1613C9.24442 16.1613 9.01544 16.3903 9.01544 16.6727V18.3093C9.01544 18.5918 9.24442 18.8208 9.52688 18.8208C9.80933 18.8208 10.0383 18.5918 10.0383 18.3093V16.6727C10.0383 16.3903 9.80933 16.1613 9.52688 16.1613ZM13.5335 1.44786C13.6747 1.20325 13.9875 1.11944 14.2321 1.26067C14.4767 1.40189 14.5605 1.71468 14.4193 1.9593L13.601 3.37663C13.4598 3.62124 13.147 3.70506 12.9024 3.56383C12.6577 3.4226 12.5739 3.10981 12.7152 2.86519L13.5335 1.44786ZM6.15126 15.2569C5.90664 15.1156 5.59385 15.1995 5.45262 15.4441L4.63433 16.8614C4.4931 17.106 4.57691 17.4188 4.82153 17.56C5.06614 17.7013 5.37893 17.6174 5.52016 17.3728L6.33845 15.9555C6.47968 15.7109 6.39587 15.3981 6.15126 15.2569ZM16.9778 4.51808C17.2224 4.37685 17.5352 4.46067 17.6764 4.70528C17.8176 4.9499 17.7338 5.26269 17.4892 5.40391L16.0719 6.22221C15.8273 6.36344 15.5145 6.27963 15.3732 6.03501C15.232 5.7904 15.3158 5.47761 15.5604 5.33638L16.9778 4.51808ZM3.68007 12.7859C3.53884 12.5413 3.22605 12.4575 2.98143 12.5987L1.5641 13.417C1.31949 13.5583 1.23568 13.8711 1.3769 14.1157C1.51813 14.3603 1.83092 14.4441 2.07554 14.3029L3.49287 13.4846C3.73748 13.3434 3.82129 13.0306 3.68007 12.7859ZM18.4251 8.89913C18.7076 8.89913 18.9365 9.12811 18.9365 9.41056C18.9365 9.69302 18.7076 9.922 18.4251 9.922H16.7885C16.5061 9.922 16.2771 9.69302 16.2771 9.41056C16.2771 9.12811 16.5061 8.89913 16.7885 8.89913H18.4251ZM2.77542 9.41056C2.77542 9.12811 2.54644 8.89913 2.26399 8.89913H0.627394C0.344936 8.89913 0.115959 9.12811 0.115959 9.41056C0.115959 9.69302 0.344936 9.922 0.627394 9.922H2.26399C2.54644 9.922 2.77542 9.69302 2.77542 9.41056ZM17.489 13.417C17.7336 13.5582 17.8174 13.871 17.6762 14.1156C17.535 14.3602 17.2222 14.444 16.9776 14.3028L15.5602 13.4845C15.3156 13.3433 15.2318 13.0305 15.373 12.7859C15.5143 12.5413 15.827 12.4574 16.0717 12.5987L17.489 13.417ZM3.68005 6.03486C3.82128 5.79024 3.73747 5.47745 3.49285 5.33622L2.07552 4.51793C1.8309 4.3767 1.51811 4.46051 1.37689 4.70513C1.23566 4.94974 1.31947 5.26253 1.56408 5.40376L2.98141 6.22205C3.22603 6.36328 3.53882 6.27947 3.68005 6.03486ZM14.4184 16.8615C14.5596 17.1061 14.4758 17.4189 14.2312 17.5601C13.9866 17.7013 13.6738 17.6175 13.5326 17.3729L12.7143 15.9556C12.573 15.711 12.6569 15.3982 12.9015 15.2569C13.1461 15.1157 13.4589 15.1995 13.6001 15.4441L14.4184 16.8615ZM6.15026 3.56396C6.39488 3.42274 6.47869 3.10995 6.33746 2.86533L5.51916 1.448C5.37793 1.20339 5.06515 1.11957 4.82053 1.2608C4.57591 1.40203 4.4921 1.71482 4.63333 1.95944L5.45163 3.37677C5.59286 3.62138 5.90564 3.70519 6.15026 3.56396Z" fill="url(#paint2_linear_65_2597)"/>
<defs>
<linearGradient id="paint0_linear_65_2597" x1="12.7484" y1="4.50042" x2="7.5494" y2="15.183" gradientUnits="userSpaceOnUse">
<stop offset="0.182844" stop-color="#FFE600"/>
<stop offset="0.980542" stop-color="#F09000"/>
</linearGradient>
<linearGradient id="paint1_linear_65_2597" x1="6.60045" y1="2.37217" x2="14.6665" y2="21.7465" gradientUnits="userSpaceOnUse">
<stop stop-color="#FFE600"/>
<stop offset="1" stop-color="#9C8D00"/>
</linearGradient>
<linearGradient id="paint2_linear_65_2597" x1="16.4307" y1="2.45489" x2="2.46855" y2="18.8208" gradientUnits="userSpaceOnUse">
<stop stop-color="#FFE600"/>
<stop offset="1" stop-color="#AA9900"/>
</linearGradient>
</defs>
</svg>
